<svg width="40" height="40" viewBox="0 0 40 40" fill="none" xmlns="http://www.w3.org/2000/svg">
<path fill-rule="evenodd" clip-rule="evenodd" d="M25.625 26.6667H7.70833C6.21167 26.6667 5 25.455 5 23.9583V7.70833C5 6.21167 6.21167 5 7.70833 5H25.625C27.1217 5 28.3333 6.21167 28.3333 7.70833V23.9583C28.3333 25.455 27.1217 26.6667 25.625 26.6667Z" stroke="#8257E5" stroke-width="2" stroke-linecap="round" stroke-linejoin="round"/>
<path d="M18.3333 20H21.6666" stroke="#04D361" stroke-width="2" stroke-linecap="round" stroke-linejoin="round"/>
<path d="M11.6667 11.6667L15 15L11.6667 18.3334" stroke="#04D361" stroke-width="2" stroke-linecap="round" stroke-linejoin="round"/>
<path d="M28.3333 13.3333H32.2917C33.7883 13.3333 35 14.545 35 16.0416V32.2916C35 33.7883 33.7883 35 32.2917 35H12.7083C11.2117 35 10 33.7883 10 32.2916V26.6666" stroke="#8257E5" stroke-width="2" stroke-linecap="round" stroke-linejoin="round"/>
</svg>
