<svg width="215" height="352" viewBox="0 0 215 352" fill="none" xmlns="http://www.w3.org/2000/svg">
<path opacity="0.08" d="M63.0667 215.403C63.0667 199.483 66.4111 186.109 73.1 175.284C79.7889 164.458 91.2556 153.154 107.5 141.373C121.833 131.184 132.026 122.428 138.078 115.104C144.448 107.463 147.633 98.5473 147.633 88.3582C147.633 78.1692 143.811 70.5274 136.167 65.4328C128.841 60.0199 118.489 57.3134 105.111 57.3134C91.7333 57.3134 78.5148 59.3831 65.4556 63.5224C52.3963 67.6617 39.0185 73.2338 25.3222 80.2388L0 29.1343C15.6074 20.5373 32.4889 13.5323 50.6444 8.11941C68.8 2.70647 88.7074 0 110.367 0C143.493 0 169.133 7.9602 187.289 23.8806C205.763 39.801 215 60.0199 215 84.5373C215 97.592 212.93 108.896 208.789 118.448C204.648 128 198.437 136.915 190.156 145.194C181.874 153.154 171.522 161.751 159.1 170.985C149.863 177.672 142.696 183.403 137.6 188.179C132.504 192.955 129 197.572 127.089 202.03C125.496 206.488 124.7 212.06 124.7 218.746V232.597H63.0667V215.403ZM55.4222 312.358C55.4222 297.711 59.4037 287.522 67.3667 281.791C75.3296 275.741 85.0444 272.716 96.5111 272.716C107.659 272.716 117.215 275.741 125.178 281.791C133.141 287.522 137.122 297.711 137.122 312.358C137.122 326.368 133.141 336.557 125.178 342.925C117.215 348.975 107.659 352 96.5111 352C85.0444 352 75.3296 348.975 67.3667 342.925C59.4037 336.557 55.4222 326.368 55.4222 312.358Z" fill="url(#paint0_linear)"/>
<defs>
<linearGradient id="paint0_linear" x1="107.5" y1="0" x2="107.5" y2="352" gradientUnits="userSpaceOnUse">
<stop/>
<stop offset="1" stop-opacity="0.4"/>
</linearGradient>
</defs>
</svg>
