<svg width="40" height="40" viewBox="0 0 40 40" fill="none" xmlns="http://www.w3.org/2000/svg">
<path d="M33.3334 16.6667V20.8333C33.3334 22.214 32.2141 23.3333 30.8334 23.3333H9.16669C7.78598 23.3333 6.66669 22.214 6.66669 20.8333V8.33333C6.66669 6.49238 8.15907 5 10 5H15" stroke="#8257E5" stroke-width="2" stroke-linecap="round" stroke-linejoin="round"/>
<path fill-rule="evenodd" clip-rule="evenodd" d="M31.6651 35H8.33492C7.28912 35 6.30396 34.5091 5.67417 33.6742C5.04437 32.8393 4.84298 31.7572 5.13024 30.7516L6.90409 24.5422C7.1085 23.8266 7.76251 23.3333 8.50669 23.3333H31.4934C32.2375 23.3333 32.8915 23.8266 33.0959 24.5422L34.8698 30.7516C35.1571 31.7572 34.9557 32.8393 34.3259 33.6742C33.6961 34.5091 32.7109 35 31.6651 35Z" stroke="#8257E5" stroke-width="2" stroke-linecap="round" stroke-linejoin="round"/>
<path d="M16.6667 30H23.3334" stroke="#04D361" stroke-width="2" stroke-linecap="round" stroke-linejoin="round"/>
<path d="M25 11.6667L21.6667 8.33333L25 5" stroke="#04D361" stroke-width="2" stroke-linecap="round" stroke-linejoin="round"/>
<path d="M30 5L33.3333 8.33333L30 11.6667" stroke="#04D361" stroke-width="2" stroke-linecap="round" stroke-linejoin="round"/>
</svg>
