<svg width="175" height="40" viewBox="0 0 175 40" fill="none" xmlns="http://www.w3.org/2000/svg">
<path d="M8.8 30.8C6.13333 30.8 4 29.88 2.4 28.04C0.8 26.1733 0 23.4 0 19.72C0 16.04 0.8 13.2667 2.4 11.4C4.02667 9.50667 6.17333 8.56 8.84 8.56C10.4933 8.56 11.84 8.86667 12.88 9.48C13.9467 10.0933 14.8133 10.84 15.48 11.72H15.72C15.6933 11.3733 15.64 10.8667 15.56 10.2C15.5067 9.50667 15.48 8.96 15.48 8.56V0H19V30.4H16.16L15.64 27.52H15.48C14.84 28.4267 13.9867 29.2 12.92 29.84C11.8533 30.48 10.48 30.8 8.8 30.8ZM9.36 27.88C11.6267 27.88 13.2133 27.2667 14.12 26.04C15.0533 24.7867 15.52 22.9067 15.52 20.4V19.76C15.52 17.0933 15.08 15.0533 14.2 13.64C13.32 12.2 11.6933 11.48 9.32 11.48C7.42667 11.48 6 12.24 5.04 13.76C4.10667 15.2533 3.64 17.2667 3.64 19.8C3.64 22.36 4.10667 24.3467 5.04 25.76C6 27.1733 7.44 27.88 9.36 27.88Z" fill="white"/>
<path d="M34.0894 8.56C35.9294 8.56 37.5027 8.96 38.8094 9.76C40.1427 10.56 41.156 11.6933 41.8494 13.16C42.5694 14.6 42.9294 16.2933 42.9294 18.24V20.36H28.2494C28.3027 22.7867 28.916 24.64 30.0894 25.92C31.2894 27.1733 32.956 27.8 35.0894 27.8C36.4494 27.8 37.6494 27.68 38.6894 27.44C39.756 27.1733 40.8494 26.8 41.9694 26.32V29.4C40.876 29.88 39.796 30.2267 38.7294 30.44C37.6627 30.68 36.396 30.8 34.9294 30.8C32.9027 30.8 31.1027 30.3867 29.5294 29.56C27.9827 28.7333 26.7694 27.5067 25.8894 25.88C25.036 24.2267 24.6094 22.2133 24.6094 19.84C24.6094 17.4933 24.996 15.48 25.7694 13.8C26.5694 12.12 27.676 10.8267 29.0894 9.92C30.5294 9.01334 32.196 8.56 34.0894 8.56ZM34.0494 11.44C32.3694 11.44 31.036 11.9867 30.0494 13.08C29.0894 14.1467 28.516 15.64 28.3294 17.56H39.2494C39.2227 15.7467 38.796 14.28 37.9694 13.16C37.1427 12.0133 35.836 11.44 34.0494 11.44Z" fill="white"/>
<path d="M52.3263 30.4L44.2062 8.96H47.9663L52.5262 21.6C52.7396 22.1867 52.9662 22.84 53.2062 23.56C53.4463 24.28 53.6596 24.9733 53.8462 25.64C54.0329 26.28 54.1662 26.8267 54.2463 27.28H54.4062C54.5129 26.8267 54.6596 26.2667 54.8462 25.6C55.0596 24.9333 55.2862 24.24 55.5262 23.52C55.7929 22.8 56.0196 22.16 56.2062 21.6L60.7663 8.96H64.5263L56.3662 30.4H52.3263Z" fill="white"/>
<path d="M65.7972 28.24C65.7972 27.2533 66.0372 26.56 66.5172 26.16C66.9972 25.76 67.5705 25.56 68.2372 25.56C68.9305 25.56 69.5172 25.76 69.9972 26.16C70.5039 26.56 70.7572 27.2533 70.7572 28.24C70.7572 29.2 70.5039 29.8933 69.9972 30.32C69.5172 30.7467 68.9305 30.96 68.2372 30.96C67.5705 30.96 66.9972 30.7467 66.5172 30.32C66.0372 29.8933 65.7972 29.2 65.7972 28.24Z" fill="white"/>
<path d="M89.8603 30.84C89.8603 29.72 89.9403 28.6267 90.1003 27.56H89.8603C89.3003 28.4667 88.527 29.24 87.5403 29.88C86.5536 30.4933 85.2603 30.8 83.6603 30.8C81.207 30.8 79.2203 29.8533 77.7003 27.96C76.1803 26.04 75.4203 23.2267 75.4203 19.52C75.4203 15.7867 76.1936 12.96 77.7403 11.04C79.287 9.12 81.3003 8.16 83.7803 8.16C85.3803 8.16 86.6737 8.46667 87.6603 9.08C88.6737 9.69333 89.487 10.4533 90.1003 11.36H90.2603L90.7803 8.56H95.8203V40H89.8603V30.84ZM85.7803 26.12C87.4336 26.12 88.5803 25.64 89.2203 24.68C89.887 23.6933 90.2337 22.2267 90.2603 20.28V19.56C90.2603 17.4267 89.927 15.8 89.2603 14.68C88.6203 13.56 87.4336 13 85.7003 13C84.287 13 83.2337 13.5733 82.5403 14.72C81.847 15.84 81.5003 17.4667 81.5003 19.6C81.5003 23.9467 82.927 26.12 85.7803 26.12Z" fill="white"/>
<path d="M122.093 8.56V30.4H117.533L116.733 27.6H116.413C115.719 28.72 114.759 29.5333 113.533 30.04C112.333 30.5467 111.053 30.8 109.693 30.8C107.346 30.8 105.466 30.1733 104.053 28.92C102.639 27.64 101.933 25.6 101.933 22.8V8.56H107.893V21.32C107.893 22.8667 108.173 24.04 108.733 24.84C109.293 25.64 110.186 26.04 111.413 26.04C113.226 26.04 114.466 25.4267 115.133 24.2C115.799 22.9467 116.133 21.16 116.133 18.84V8.56H122.093Z" fill="white"/>
<path d="M131.342 0C132.222 0 132.982 0.213334 133.622 0.640001C134.262 1.04 134.582 1.8 134.582 2.92C134.582 4.01333 134.262 4.77333 133.622 5.2C132.982 5.62667 132.222 5.84 131.342 5.84C130.435 5.84 129.662 5.62667 129.022 5.2C128.409 4.77333 128.102 4.01333 128.102 2.92C128.102 1.8 128.409 1.04 129.022 0.640001C129.662 0.213334 130.435 0 131.342 0ZM134.302 8.56V30.4H128.342V8.56H134.302Z" fill="white"/>
<path d="M155.729 30.4H138.489V26.88L148.609 13.12H139.089V8.56H155.369V12.44L145.529 25.84H155.729V30.4Z" fill="white"/>
<path d="M174.781 36.56H156.861V34H174.781V36.56Z" fill="white"/>
</svg>
